<svg xmlns="http://www.w3.org/2000/svg" width="1800" height="1220" viewBox="0 0 1800 1220" role="img" aria-labelledby="title desc">
  <title id="title">GADD Work Item triage and delivery workflow</title>
  <desc id="desc">A workflow diagram showing unclassified intake entering triage, triage outcomes routing Work Items to implementation, design, Product Requirement discovery, or terminal handling, and known product discovery entering the Product Requirement lane directly.</desc>
  <defs>
    <style>
      .bg { fill: #f7f9fc; }
      .title { font: 800 46px Inter, ui-sans-serif, system-ui, -apple-system, BlinkMacSystemFont, "Segoe UI", sans-serif; fill: #111827; }
      .subtitle { font: 400 23px Inter, ui-sans-serif, system-ui, -apple-system, BlinkMacSystemFont, "Segoe UI", sans-serif; fill: #475569; }
      .card-title { font: 800 26px Inter, ui-sans-serif, system-ui, -apple-system, BlinkMacSystemFont, "Segoe UI", sans-serif; fill: #0f172a; }
      .card-subtitle { font: 600 17px Inter, ui-sans-serif, system-ui, -apple-system, BlinkMacSystemFont, "Segoe UI", sans-serif; fill: #475569; }
      .section { font: 800 15px Inter, ui-sans-serif, system-ui, -apple-system, BlinkMacSystemFont, "Segoe UI", sans-serif; fill: #334155; text-transform: uppercase; }
      .body { font: 500 18px Inter, ui-sans-serif, system-ui, -apple-system, BlinkMacSystemFont, "Segoe UI", sans-serif; fill: #1f2937; }
      .mono { font: 700 17px "SFMono-Regular", Consolas, "Liberation Mono", Menlo, monospace; fill: #0f172a; }
      .small { font: 700 16px Inter, ui-sans-serif, system-ui, -apple-system, BlinkMacSystemFont, "Segoe UI", sans-serif; fill: #475569; }
      .bar-title { font: 800 22px Inter, ui-sans-serif, system-ui, -apple-system, BlinkMacSystemFont, "Segoe UI", sans-serif; fill: #0f172a; }
      .bar-body { font: 500 19px Inter, ui-sans-serif, system-ui, -apple-system, BlinkMacSystemFont, "Segoe UI", sans-serif; fill: #334155; }
      .outline { fill: #ffffff; stroke: #dbe4ef; stroke-width: 2; }
      .intake { fill: #eef6ff; stroke: #bfdbfe; stroke-width: 2; }
      .triage { fill: #ecfdf5; stroke: #86efac; stroke-width: 2; }
      .route { fill: #fff7ed; stroke: #fed7aa; stroke-width: 2; }
      .terminal { fill: #f8fafc; stroke: #cbd5e1; stroke-width: 2; }
      .lane { fill: #ffffff; stroke: #dbe4ef; stroke-width: 2; }
      .arrow { fill: none; stroke: #64748b; stroke-width: 3; marker-end: url(#arrowhead); }
      .soft-arrow { fill: none; stroke: #94a3b8; stroke-width: 2.4; marker-end: url(#arrowhead-soft); }
    </style>
    <marker id="arrowhead" markerWidth="11" markerHeight="8" refX="10" refY="4" orient="auto">
      <path d="M0,0 L11,4 L0,8 Z" fill="#64748b"/>
    </marker>
    <marker id="arrowhead-soft" markerWidth="11" markerHeight="8" refX="10" refY="4" orient="auto">
      <path d="M0,0 L11,4 L0,8 Z" fill="#94a3b8"/>
    </marker>
    <linearGradient id="ledgerGrad" x1="0" y1="0" x2="1" y2="0">
      <stop offset="0%" stop-color="#e0f2fe"/>
      <stop offset="50%" stop-color="#ecfdf5"/>
      <stop offset="100%" stop-color="#fef9c3"/>
    </linearGradient>
    <filter id="shadow" x="-10%" y="-10%" width="120%" height="130%">
      <feDropShadow dx="0" dy="10" stdDeviation="14" flood-color="#0f172a" flood-opacity="0.12"/>
    </filter>
  </defs>

  <rect class="bg" width="1800" height="1220"/>

  <text x="70" y="70" class="title">GADD routes Work Items from intake to verified delivery</text>
  <text x="70" y="112" class="subtitle">Unclassified intake goes through triage. Known product discovery can enter the Product Requirement lane directly.</text>

  <g filter="url(#shadow)">
    <rect x="70" y="165" width="360" height="190" rx="20" class="intake"/>
    <rect x="530" y="165" width="390" height="190" rx="20" class="triage"/>
    <rect x="1040" y="165" width="360" height="210" rx="20" class="route"/>
  </g>

  <text x="100" y="215" class="card-title">Unclassified intake</text>
  <text x="100" y="250" class="body">External issues, bug reports,</text>
  <text x="100" y="278" class="body">tasks, support signals,</text>
  <text x="100" y="306" class="body">and ambiguous requests</text>
  <text x="100" y="332" class="small">Source or create a Work Item</text>

  <text x="560" y="215" class="card-title">/gadd:triage</text>
  <text x="560" y="250" class="body">Normalize intake quality</text>
  <text x="560" y="278" class="body">Use GitNexus when code reality matters</text>
  <text x="560" y="306" class="body">Record type, state, route, and evidence</text>
  <text x="560" y="332" class="small">Project narrative to External issues after approval</text>

  <text x="1070" y="215" class="card-title">triage outcome</text>
  <text x="1070" y="250" class="body">Approved route decision</text>
  <text x="1070" y="278" class="body">Stored in repo-local ledger</text>
  <text x="1070" y="306" class="body">External issue remains a</text>
  <text x="1070" y="332" class="body">collaboration surface</text>
  <text x="1070" y="350" class="small">Work Item state drives next command</text>

  <path d="M430 260 H530" class="arrow"/>
  <path d="M920 260 H1040" class="arrow"/>

  <g filter="url(#shadow)">
    <rect x="70" y="430" width="360" height="160" rx="20" class="intake"/>
  </g>
  <text x="100" y="480" class="card-title">Known product discovery</text>
  <text x="100" y="515" class="mono">/gadd:research</text>
  <text x="100" y="543" class="mono">/gadd:scope</text>
  <text x="100" y="570" class="small">PM-led Product Requirement entry path</text>

  <g filter="url(#shadow)">
    <rect x="70" y="670" width="360" height="230" rx="22" class="lane"/>
    <rect x="515" y="670" width="360" height="230" rx="22" class="lane"/>
    <rect x="960" y="670" width="360" height="230" rx="22" class="lane"/>
    <rect x="1405" y="670" width="320" height="230" rx="22" class="terminal"/>
  </g>

  <text x="100" y="720" class="card-title">ready_for_implementation</text>
  <text x="100" y="760" class="mono">/gadd:implement</text>
  <text x="100" y="794" class="body">Bug fixes and focused tasks</text>
  <text x="100" y="822" class="body">use the approved triage outcome</text>
  <text x="100" y="850" class="body">as implementation boundary.</text>

  <text x="545" y="720" class="card-title">needs_sdd</text>
  <text x="545" y="760" class="mono">/gadd:design</text>
  <text x="545" y="794" class="body">Engineering changes get an SDD</text>
  <text x="545" y="822" class="body">without requiring a PRD first.</text>
  <text x="545" y="850" class="body">Approval controls SDD and plan gates.</text>

  <text x="990" y="720" class="card-title">needs_prd</text>
  <text x="990" y="760" class="mono">/gadd:research or /gadd:scope</text>
  <text x="990" y="794" class="body">Product Requirement lane owns</text>
  <text x="990" y="822" class="body">scope, elaboration, refinement,</text>
  <text x="990" y="850" class="body">and PRD approval.</text>

  <text x="1435" y="720" class="card-title">terminal or waiting</text>
  <text x="1435" y="760" class="mono">needs_info</text>
  <text x="1435" y="788" class="mono">duplicate</text>
  <text x="1435" y="816" class="mono">out_of_scope</text>
  <text x="1435" y="844" class="mono">not_gadd_work</text>
  <text x="1435" y="872" class="small">or blocked on a human decision</text>

  <path d="M1220 375 C1220 485 250 520 250 670" class="soft-arrow"/>
  <path d="M1220 375 C1220 505 695 520 695 670" class="soft-arrow"/>
  <path d="M1220 375 C1220 505 1140 520 1140 670" class="soft-arrow"/>
  <path d="M1220 375 C1220 500 1565 520 1565 670" class="soft-arrow"/>
  <path d="M430 510 C690 510 885 555 1060 670" class="arrow"/>

  <g filter="url(#shadow)">
    <rect x="70" y="965" width="1655" height="64" rx="22" fill="#ffffff" stroke="#cbd5e1" stroke-width="2"/>
  </g>
  <text x="100" y="1002" class="bar-title">Delivery visibility</text>
  <text x="325" y="1002" class="bar-body">External issues and Pull Requests project approved narratives, review context, implementation evidence, and closure decisions.</text>

  <g filter="url(#shadow)">
    <rect x="70" y="1048" width="1655" height="62" rx="22" fill="url(#ledgerGrad)" stroke="#bae6fd" stroke-width="2"/>
  </g>
  <text x="100" y="1086" class="bar-title">Canonical workflow state</text>
  <text x="405" y="1086" class="bar-body">repo-local </text>
  <text x="505" y="1086" class="mono">docs/work-items/**/ledger.yml</text>
  <text x="815" y="1086" class="bar-body">records Work Item type, route, approvals, evidence, external binding, and next action.</text>

  <text x="100" y="1162" class="bar-body">Outside this slice, release operations and long-term maintenance remain in the team's existing deployment, operations, and support processes.</text>
</svg>
